<svg xmlns="http://www.w3.org/2000/svg" viewBox="0 0 580.5 453.84"><title>制片资源 2</title><g id="图层_2" data-name="图层 2"><g id="图表"><rect x="0.5" y="189.06" width="62.34" height="12.78" style="fill:#73afb6;stroke:#fff"/><rect x="0.5" y="201.84" width="62.34" height="6.39" style="fill:#73afb6;stroke:#fff"/><rect x="0.5" y="208.23" width="62.34" height="25.56" style="fill:#73afb6;stroke:#fff"/><rect x="0.5" y="233.79" width="62.34" height="6.39" style="fill:#73afb6;stroke:#fff"/><rect x="0.5" y="240.18" width="62.34" height="70.29" style="fill:#73afb6;stroke:#fff"/><rect x="0.5" y="310.46" width="62.34" height="6.39" style="fill:#73afb6;stroke:#fff"/><rect x="0.5" y="316.85" width="62.34" height="6.39" style="fill:#73afb6;stroke:#fff"/><rect x="0.5" y="323.24" width="62.34" height="6.39" style="fill:#73afb6;stroke:#fff"/><rect x="0.5" y="329.63" width="62.34" height="6.39" style="fill:#73afb6;stroke:#fff"/><rect x="0.5" y="336.02" width="62.34" height="6.39" style="fill:#73afb6;stroke:#fff"/><rect x="0.5" y="342.41" width="62.34" height="6.39" style="fill:#73afb6;stroke:#fff"/><rect x="0.5" y="348.8" width="62.34" height="6.39" style="fill:#73afb6;stroke:#fff"/><rect x="0.5" y="355.19" width="62.34" height="6.39" style="fill:#73afb6;stroke:#fff"/><rect x="62.84" y="189.06" width="76.2" height="5.23" style="fill:#73afb6;stroke:#fff"/><rect x="62.84" y="194.29" width="76.2" height="10.46" style="fill:#73afb6;stroke:#fff"/><rect x="62.84" y="204.74" width="76.2" height="5.23" style="fill:#73afb6;stroke:#fff"/><rect x="62.84" y="209.97" width="76.2" height="115.02" style="fill:#73afb6;stroke:#fff"/><rect x="62.84" y="324.99" width="76.2" height="5.23" style="fill:#73afb6;stroke:#fff"/><rect x="62.84" y="330.21" width="76.2" height="31.37" style="fill:#73afb6;stroke:#fff"/><rect x="139.04" y="189.06" width="36.94" height="21.57" style="fill:#73afb6;stroke:#fff"/><rect x="139.04" y="210.62" width="36.94" height="10.78" style="fill:#73afb6;stroke:#fff"/><rect x="139.04" y="221.41" width="36.94" height="10.78" style="fill:#73afb6;stroke:#fff"/><rect x="139.04" y="232.19" width="36.94" height="21.57" style="fill:#73afb6;stroke:#fff"/><rect x="139.04" y="253.76" width="36.94" height="32.35" style="fill:#73afb6;stroke:#fff"/><rect x="139.04" y="286.1" width="36.94" height="21.57" style="fill:#73afb6;stroke:#fff"/><rect x="139.04" y="307.67" width="36.94" height="10.78" style="fill:#73afb6;stroke:#fff"/><rect x="139.04" y="318.45" width="36.94" height="10.78" style="fill:#73afb6;stroke:#fff"/><rect x="139.04" y="329.23" width="36.94" height="10.78" style="fill:#73afb6;stroke:#fff"/><rect x="139.04" y="340.02" width="36.94" height="10.78" style="fill:#73afb6;stroke:#fff"/><rect x="139.04" y="350.8" width="36.94" height="10.78" style="fill:#73afb6;stroke:#fff"/><rect x="175.98" y="189.06" width="55.41" height="93.45" style="fill:#73afb6;stroke:#fff"/><rect x="175.98" y="282.51" width="55.41" height="7.19" style="fill:#73afb6;stroke:#fff"/><rect x="175.98" y="289.7" width="55.41" height="7.19" style="fill:#73afb6;stroke:#fff"/><rect x="175.98" y="296.89" width="55.41" height="50.32" style="fill:#73afb6;stroke:#fff"/><rect x="175.98" y="347.21" width="55.41" height="7.19" style="fill:#73afb6;stroke:#fff"/><rect x="175.98" y="354.39" width="55.41" height="7.19" style="fill:#73afb6;stroke:#fff"/><rect x="231.39" y="189.06" width="330.18" height="172.52" style="fill:#73afb6;stroke:#fff"/><rect x="561.57" y="189.06" width="6.93" height="57.51" style="fill:#73afb6;stroke:#fff"/><rect x="561.57" y="246.57" width="6.93" height="57.51" style="fill:#73afb6;stroke:#fff"/><rect x="561.57" y="304.07" width="6.93" height="57.51" style="fill:#73afb6;stroke:#fff"/><text transform="translate(240.99 213.86)" style="font-size:15px;fill:#2b2301;font-family:FZYANS_ZHONGJW--GB1-0, FZYanSongS-DB-GB">美国电影<tspan x="60" y="0" style="font-size:14px">: 143部</tspan></text><text transform="translate(66.13 229.55)" style="font-size:14px;fill:#2b2301;font-family:FZYANS_ZHONGJW--GB1-0, FZYanSongS-DB-GB">美国/英国<tspan style="font-size:13px"><tspan x="0" y="19">22部</tspan></tspan></text><text transform="translate(64.13 346.38)" style="font-size:13px;fill:#2b2301;font-family:FZYANS_ZHONGJW--GB1-0, FZYanSongS-DB-GB">美国/新西兰</text><text transform="translate(2.93 260.68)" style="font-size:14px;fill:#2b2301;font-family:FZYANS_ZHONGJW--GB1-0, FZYanSongS-DB-GB">香港电影<tspan style="font-size:13px"><tspan x="0" y="19">11部</tspan></tspan></text><text transform="translate(177.8 213.01)" style="font-size:14px;fill:#2b2301;font-family:FZYANS_ZHONGJW--GB1-0, FZYanSongS-DB-GB">美/德国<tspan style="font-size:13px"><tspan x="0" y="19">13部</tspan></tspan></text><text transform="translate(178.79 314.85)" style="font-size:13px;fill:#2b2301;font-family:FZYANS_ZHONGJW--GB1-0, FZYanSongS-DB-GB">美国/澳<tspan x="0" y="16">大利亚</tspan></text><text transform="translate(1.29 225.14)" style="font-size:13px;fill:#2b2301;font-family:FZYANS_ZHONGJW--GB1-0, FZYanSongS-DB-GB">香港/美国</text><rect x="0.5" y="43.21" width="38.42" height="10.37" style="fill:#e2da99;stroke:#fff"/><rect x="0.5" y="53.58" width="38.42" height="31.11" style="fill:#e2da99;stroke:#fff"/><rect x="0.5" y="84.69" width="38.42" height="20.74" style="fill:#e2da99;stroke:#fff"/><rect x="0.5" y="105.43" width="38.42" height="20.74" style="fill:#e2da99;stroke:#fff"/><rect x="0.5" y="126.16" width="38.42" height="31.11" style="fill:#e2da99;stroke:#fff"/><rect x="0.5" y="157.27" width="38.42" height="20.74" style="fill:#e2da99;stroke:#fff"/><rect x="0.5" y="178.01" width="38.42" height="10.37" style="fill:#e2da99;stroke:#fff"/><rect x="38.92" y="43.21" width="27.44" height="101.62" style="fill:#e2da99;stroke:#fff"/><rect x="38.92" y="144.83" width="27.44" height="14.52" style="fill:#e2da99;stroke:#fff"/><rect x="38.92" y="159.35" width="27.44" height="29.03" style="fill:#e2da99;stroke:#fff"/><rect x="66.36" y="43.21" width="208.54" height="145.17" style="fill:#e2da99;stroke:#fff"/><rect x="274.9" y="43.21" width="54.88" height="29.03" style="fill:#e2da99;stroke:#fff"/><rect x="274.9" y="72.24" width="54.88" height="7.26" style="fill:#e2da99;stroke:#fff"/><rect x="274.9" y="79.5" width="54.88" height="7.26" style="fill:#e2da99;stroke:#fff"/><rect x="274.9" y="86.76" width="54.88" height="7.26" style="fill:#e2da99;stroke:#fff"/><rect x="274.9" y="94.02" width="54.88" height="7.26" style="fill:#e2da99;stroke:#fff"/><rect x="274.9" y="101.28" width="54.88" height="7.26" style="fill:#e2da99;stroke:#fff"/><rect x="274.9" y="108.54" width="54.88" height="65.33" style="fill:#e2da99;stroke:#fff"/><rect x="274.9" y="173.86" width="54.88" height="7.26" style="fill:#e2da99;stroke:#fff"/><rect x="274.9" y="181.12" width="54.88" height="7.26" style="fill:#e2da99;stroke:#fff"/><rect x="329.78" y="43.21" width="238.72" height="143.5" style="fill:#e2da99;stroke:#fff"/><rect x="329.78" y="186.71" width="238.72" height="1.67" style="fill:#e2da99;stroke:#fff"/><text transform="translate(338.41 66.77)" style="font-size:15px;fill:#2b2301;font-family:FZYANS_ZHONGJW--GB1-0, FZYanSongS-DB-GB">大陆/香港<tspan x="67.68" y="0" style="font-size:14px">: 76部</tspan></text><text transform="translate(72.72 66.77)" style="font-size:15px;fill:#2b2301;font-family:FZYANS_ZHONGJW--GB1-0, FZYanSongS-DB-GB">中国大陆电影<tspan x="90" y="0" style="font-size:14px">: 86部</tspan></text><text transform="translate(278.83 127.4)" style="font-size:13px;fill:#2b2301;font-family:FZYANS_ZHONGJW--GB1-0, FZYanSongS-DB-GB">香港/美<tspan x="0" y="16">国: </tspan><tspan x="23.56" y="16" style="font-size:12px">9部</tspan></text><text transform="translate(275.24 63.23) scale(0.98 1)" style="font-size:12px;fill:#2b2301;font-family:FZYANS_ZHONGJW--GB1-0, FZYanSongS-DB-GB">大陆/台湾</text><text transform="translate(40.79 64.45) scale(0.98 1)" style="font-size:12px;fill:#2b2301;font-family:FZYANS_ZHONGJW--GB1-0, FZYanSongS-DB-GB">大陆<tspan x="0" y="16">香港</tspan><tspan x="0" y="32">美国</tspan><tspan style="font-size:11px"><tspan x="0" y="51">7部</tspan></tspan></text></g><g id="图标"><circle cx="191.78" cy="387.64" r="6" style="fill:#e2da99"/><text transform="translate(206.26 391.62) scale(0.98 1)" style="font-size:14px;fill:#fff;font-family:FZYANS_ZHONGJW--GB1-0, FZYanSongS-DB-GB">中国大陆参与制片<tspan x="112" y="0" style="font-size:13px">/207部</tspan></text><circle cx="387.27" cy="387.64" r="6" style="fill:#73afb6"/><text transform="translate(402.1 392.47) scale(0.98 1)" style="font-size:14px;fill:#fff;font-family:FZYANS_ZHONGJW--GB1-0, FZYanSongS-DB-GB">中国大陆<tspan x="56" y="0" style="fill:#9dc6c9;font-size:15px">未</tspan><tspan x="71" y="0">参与制片</tspan><tspan x="127" y="0" style="font-size:13px">/246部</tspan></text><text transform="translate(0.5 15.31) scale(0.98 1)" style="font-size:17px;fill:#fafcfc;font-family:FZYANS_ZHONGJW--GB1-0, FZYanSongS-DB-GB">1994—2019年Top20<tspan x="175.25" y="0" style="font-size:18px">高票房电影的制片地分布</tspan></text><text transform="translate(0.5 434.71)" style="font-size:12px;fill:#b4b5b5;font-family:FZYANS_ZHONGJW--GB1-0, FZYanSongS-DB-GB">数据来源：豆瓣网、电影票房数据库、艺恩文娱数据库</text><line x1="0.5" y1="442.51" x2="568.5" y2="441.7" style="fill:#b4b5b5;stroke:#b4b5b5"/></g></g></svg>