<svg xmlns="http://www.w3.org/2000/svg" xmlns:xlink="http://www.w3.org/1999/xlink" viewBox="0 0 577.17 464.22"><defs><clipPath id="clip-path"><rect x="47.31" y="74.98" width="504.67" height="459.41" style="fill:none"/></clipPath><clipPath id="clip-path-2"><rect x="47.31" y="74.74" width="504.67" height="457.69" style="fill:none"/></clipPath></defs><title>比例资源 1</title><g id="图层_2" data-name="图层 2"><g id="图层_2-2" data-name="图层 2"><text transform="translate(5 15.31)" style="font-size:17px;fill:#fffdfd;font-family:FZYANS_ZHONGJW--GB1-0, FZYanSongS-DB-GB">2000—2019年Top20<tspan x="175.25" y="0" style="font-size:18px">高票房电影中</tspan><tspan style="font-size:18px"><tspan x="0" y="26">大陆电影的数量变化</tspan></tspan></text></g><g id="图层_1-2" data-name="图层 1"><g id="横虚线"><line x1="46.31" y1="326.73" x2="550.98" y2="326.73" style="fill:none;stroke:#e9e9e9;stroke-dasharray:3,3"/><line x1="46.31" y1="263.88" x2="550.98" y2="263.88" style="fill:none;stroke:#e9e9e9;stroke-dasharray:3,3"/><line x1="46.31" y1="201.03" x2="550.98" y2="201.03" style="fill:none;stroke:#e9e9e9;stroke-dasharray:3,3"/><line x1="46.31" y1="138.18" x2="550.98" y2="138.18" style="fill:none;stroke:#e9e9e9;stroke-dasharray:3,3"/><line x1="46.31" y1="75.33" x2="550.98" y2="75.33" style="fill:none;stroke:#e9e9e9;stroke-dasharray:3,3"/></g><text transform="translate(43.52 413.43)" style="isolation:isolate;font-size:14px;fill:#fff;font-family:ArialMT, Arial">2000-2004</text><text transform="translate(191.95 413.43)" style="isolation:isolate;font-size:14px;fill:#fff;font-family:ArialMT, Arial">2005-2009</text><text transform="translate(340.38 413.43)" style="isolation:isolate;font-size:14px;fill:#fff;font-family:ArialMT, Arial">2010-2014</text><path d="M47.31,388.83v.5H552v-.5" style="fill:none;stroke:#bfbfbf"/><line x1="76.99" y1="388.83" x2="76.99" y2="393.83" style="fill:none;stroke:#bfbfbf"/><line x1="225.43" y1="388.83" x2="225.43" y2="393.83" style="fill:none;stroke:#bfbfbf"/><line x1="373.86" y1="388.83" x2="373.86" y2="393.83" style="fill:none;stroke:#bfbfbf"/><line x1="522.29" y1="388.83" x2="522.29" y2="393.83" style="fill:none;stroke:#bfbfbf"/><text transform="translate(486.82 413.43)" style="isolation:isolate;font-size:14px;fill:#fff;font-family:ArialMT, Arial">2015-2019</text><text transform="translate(15.57 395) scale(1.02 1)" style="isolation:isolate;font-size:12.75866985321045px;fill:#fff;font-family:ArialMT, Arial">0%</text><text transform="translate(7.79 331.93) scale(1.02 1)" style="isolation:isolate;font-size:12.75866985321045px;fill:#fff;font-family:ArialMT, Arial">20%</text><text transform="translate(7.79 268.86) scale(1.02 1)" style="isolation:isolate;font-size:12.75866985321045px;fill:#fff;font-family:ArialMT, Arial">40%</text><text transform="translate(7.79 205.78) scale(1.02 1)" style="isolation:isolate;font-size:12.75866985321045px;fill:#fff;font-family:ArialMT, Arial">60%</text><text transform="translate(7.79 142.71) scale(1.02 1)" style="isolation:isolate;font-size:12.75866985321045px;fill:#fff;font-family:ArialMT, Arial">80%</text><text transform="translate(0 79.64) scale(1.02 1)" style="isolation:isolate;font-size:12.75866985321045px;fill:#fff;font-family:ArialMT, Arial">100%</text><circle cx="395.55" cy="52.12" r="6" style="fill:#5e9ca0"/><text transform="translate(407.55 57.02)" style="isolation:isolate;font-size:14px;fill:#fcfcfc;font-family:FZYANS_ZHUNJW--GB1-0, FZYanSongS-M-GB">大陆电影数量占比</text><text transform="translate(531.82 379.43)" style="isolation:isolate;font-size:15px;fill:#fff;font-family:FZYANS_ZHUNJW--GB1-0, FZYanSongS-M-GB">(年份)</text><g id="颜色线条"><g style="clip-path:url(#clip-path)"><path d="M77,362l148.43-3.15,148.43-22.08L522.29,280" style="fill:none;stroke:#5e9ca0;stroke-width:2px"/><path d="M77,75h445.3" style="fill:none;stroke:#e2da99;stroke-width:2px"/></g></g><g id="颜色块"><g style="clip-path:url(#clip-path-2)"><path d="M77,360.71l148.43-3.14,148.43-22L522.29,279V389H77Z" style="fill:#5e9ca0;fill-opacity:0.699999988079071"/><path d="M77,74.74h445.3V279L373.86,335.57l-148.43,22L77,360.71Z" style="fill:#e2da99;fill-opacity:0.699999988079071"/></g></g><ellipse cx="76.67" cy="362.29" rx="3.65" ry="3.57" style="fill:#fcfcfc;stroke:#5e9ca0;stroke-width:2px"/><ellipse cx="224.95" cy="358.65" rx="3.65" ry="3.57" style="fill:#fcfcfc;stroke:#5e9ca0;stroke-width:2px"/><ellipse cx="374.53" cy="336.02" rx="3.65" ry="3.57" style="fill:#fcfcfc;stroke:#5e9ca0;stroke-width:2px"/><ellipse cx="521.86" cy="279.99" rx="3.65" ry="3.57" style="fill:#fcfcfc;stroke:#5e9ca0;stroke-width:2px"/><text transform="translate(76.77 351.59)" style="isolation:isolate;font-size:15px;fill:#fff;font-family:FZYANS_ZHUNJW--GB1-0, FZYanSongS-M-GB">9部</text><text transform="translate(225.05 346.34)" style="isolation:isolate;font-size:15px;fill:#fff;font-family:FZYANS_ZHUNJW--GB1-0, FZYanSongS-M-GB">10部</text><text transform="translate(372.67 319.43)" style="isolation:isolate;font-size:15px;fill:#fff;font-family:FZYANS_ZHUNJW--GB1-0, FZYanSongS-M-GB">17部</text><text transform="translate(518.29 260.52)" style="isolation:isolate;font-size:15px;fill:#fff;font-family:FZYANS_ZHUNJW--GB1-0, FZYanSongS-M-GB">35部</text><text transform="translate(5 445.08)" style="font-size:12px;fill:#b4b5b5;font-family:FZYANS_ZHUNJW--GB1-0, FZYanSongS-M-GB">数据来源：豆瓣网、电影票房数据库、艺恩文娱数据库</text><line x1="5" y1="452.89" x2="573" y2="452.09" style="fill:#b4b5b5;stroke:#b4b5b5"/></g></g></svg>